<?xml version="1.0" encoding="UTF-8"?>
<!DOCTYPE svg PUBLIC "-//W3C//DTD SVG 1.1//EN" "http://www.w3.org/Graphics/SVG/1.1/DTD/svg11.dtd">
<!-- Creator: CorelDRAW 2017 -->
<svg xmlns="http://www.w3.org/2000/svg" xml:space="preserve" width="350px" height="60px" version="1.1" style="shape-rendering:geometricPrecision; text-rendering:geometricPrecision; image-rendering:optimizeQuality; fill-rule:evenodd; clip-rule:evenodd"
viewBox="0 0 167.232 28.737"
 xmlns:xlink="http://www.w3.org/1999/xlink">
 <defs>
  <style type="text/css">
   <![CDATA[
    .fil0 {fill:#4D4D4D}
    .fil1 {fill:#78DB78}
   ]]>
  </style>
 </defs>
 <g id="Слой_x0020_1">
  <metadata id="CorelCorpID_0Corel-Layer"/>
  <path class="fil0" d="M20.66 2.44l-16.433 9.489 0 -0.001 -4.227 2.441 4.227 2.44 20.66 11.928 0 -4.27 0 -21.625 0 -2.842 -4.227 2.44zm10.004 22.027l0 -19.845 7.127 0c2.554,0 4.498,0.466 5.828,1.401 1.331,0.935 1.996,2.293 1.996,4.07 0,1.023 -0.237,1.903 -0.707,2.628 -0.475,0.726 -1.168,1.261 -2.084,1.605 1.033,0.27 1.828,0.782 2.382,1.526 0.553,0.749 0.832,1.656 0.832,2.731 0,1.949 -0.614,3.409 -1.846,4.391 -1.233,0.977 -3.057,1.474 -5.471,1.493l-8.057 0zm4.782 -8.457l0 4.773 3.135 0c0.866,0 1.526,-0.2 1.991,-0.596 0.466,-0.395 0.694,-0.953 0.694,-1.674 0,-1.661 -0.819,-2.494 -2.466,-2.503l-3.354 0zm0 -3.126l2.498 0c1.042,-0.009 1.786,-0.2 2.233,-0.572 0.447,-0.372 0.67,-0.921 0.67,-1.647 0,-0.837 -0.242,-1.437 -0.726,-1.805 -0.479,-0.367 -1.256,-0.553 -2.33,-0.553l-2.345 0 0 4.577zm24.492 7.871l-6.554 0 -1.145 3.712 -5.112 0 7.28 -19.845 4.494 0 7.336 19.845 -5.141 0 -1.158 -3.712zm-5.41 -3.684l4.266 0 -2.14 -6.89 -2.126 6.89zm28.916 0.684c-0.065,1.381 -0.438,2.6 -1.121,3.66 -0.679,1.056 -1.638,1.875 -2.866,2.457 -1.233,0.581 -2.637,0.874 -4.219,0.874 -2.61,0 -4.661,-0.851 -6.159,-2.549 -1.503,-1.698 -2.252,-4.098 -2.252,-7.196l0 -0.982c0,-1.944 0.34,-3.647 1.019,-5.103 0.675,-1.461 1.652,-2.586 2.922,-3.382 1.269,-0.795 2.744,-1.191 4.414,-1.191 2.41,0 4.345,0.633 5.806,1.903 1.465,1.265 2.293,3.014 2.493,5.238l-4.768 0c-0.037,-1.21 -0.34,-2.079 -0.912,-2.61 -0.572,-0.525 -1.447,-0.791 -2.619,-0.791 -1.191,0 -2.061,0.447 -2.614,1.335 -0.554,0.894 -0.847,2.317 -0.875,4.275l0 1.405c0,2.117 0.265,3.633 0.8,4.545 0.531,0.907 1.447,1.363 2.745,1.363 1.098,0 1.94,-0.26 2.521,-0.777 0.582,-0.521 0.889,-1.344 0.926,-2.474l4.759 0zm9.015 -0.675l-1.958 2.154 0 5.233 -4.787 0 0 -19.845 4.787 0 0 8.75 1.66 -2.521 4.28 -6.229 5.912 0 -6.703 8.778 6.703 11.067 -5.666 0 -4.228 -7.387zm33.428 -0.014l2.275 -12.444 4.74 0 -4.21 19.845 -4.959 0 -2.661 -11.313 -2.6 11.313 -4.95 0 -4.223 -19.845 4.758 0 2.275 12.444 2.726 -12.444 4.061 0 2.768 12.444zm19.57 3.689l-6.554 0 -1.145 3.712 -5.112 0 7.28 -19.845 4.494 0 7.336 19.845 -5.141 0 -1.158 -3.712zm-5.41 -3.684l4.266 0 -2.14 -6.89 -2.126 6.89zm18.37 -3.833l3.652 -8.616 5.163 0 -6.391 12.718 0 7.127 -4.852 0 0 -7.127 -6.378 -12.718 5.14 0 3.666 8.616zm-136.417 8.176l0 -16.419 -16.234 9.372 16.234 9.372 0 -2.325z"/>
  <polygon class="fil1" points="20.66,7.321 20.66,21.417 8.453,14.369 "/>
 </g>
</svg>
