<?xml version="1.0" encoding="UTF-8"?>
<!DOCTYPE svg PUBLIC "-//W3C//DTD SVG 1.1//EN" "http://www.w3.org/Graphics/SVG/1.1/DTD/svg11.dtd">
<!-- Creator: CorelDRAW 2017 -->
<svg xmlns="http://www.w3.org/2000/svg" xml:space="preserve" width="675px" height="132px" version="1.1" style="shape-rendering:geometricPrecision; text-rendering:geometricPrecision; image-rendering:optimizeQuality; fill-rule:evenodd; clip-rule:evenodd"
viewBox="0 0 267.698 52.252"
 xmlns:xlink="http://www.w3.org/1999/xlink">
 <defs>
  <style type="text/css">
   <![CDATA[
    .fil1 {fill:#666666}
    .fil2 {fill:#78DB78}
    .fil0 {fill:#666666;fill-rule:nonzero}
   ]]>
  </style>
 </defs>
 <g id="Слой_x0020_1">
  <metadata id="CorelCorpID_0Corel-Layer"/>
  <path class="fil0" d="M65.568 40.812l0 -29.372 10.548 0c3.78,0 6.658,0.689 8.627,2.073 1.969,1.384 2.954,3.394 2.954,6.024 0,1.515 -0.351,2.816 -1.047,3.89 -0.702,1.074 -1.728,1.866 -3.084,2.375 1.528,0.4 2.706,1.157 3.525,2.259 0.819,1.108 1.232,2.451 1.232,4.041 0,2.885 -0.909,5.047 -2.733,6.499 -1.825,1.446 -4.524,2.183 -8.097,2.211l-11.925 0zm7.078 -12.517l0 7.064 4.641 0c1.28,0 2.258,-0.296 2.946,-0.882 0.689,-0.585 1.026,-1.411 1.026,-2.478 0,-2.458 -1.212,-3.691 -3.649,-3.704l-4.964 0zm0 -4.627l3.697 0c1.543,-0.014 2.644,-0.296 3.305,-0.847 0.661,-0.551 0.992,-1.363 0.992,-2.437 0,-1.24 -0.358,-2.128 -1.075,-2.672 -0.709,-0.544 -1.858,-0.819 -3.449,-0.819l-3.47 0 0 6.775z"/>
  <path id="1" class="fil0" d="M108.896 35.317l-9.701 0 -1.694 5.495 -7.567 0 10.775 -29.372 6.651 0 10.858 29.372 -7.608 0 -1.714 -5.495zm-8.008 -5.453l6.314 0 -3.167 -10.196 -3.147 10.196z"/>
  <path id="2" class="fil0" d="M143.685 30.877c-0.096,2.044 -0.647,3.848 -1.659,5.418 -1.005,1.563 -2.423,2.775 -4.241,3.635 -1.824,0.861 -3.904,1.295 -6.245,1.295 -3.862,0 -6.898,-1.26 -9.115,-3.773 -2.224,-2.513 -3.333,-6.066 -3.333,-10.651l0 -1.453c0,-2.878 0.503,-5.398 1.508,-7.553 0.998,-2.162 2.444,-3.828 4.324,-5.005 1.88,-1.178 4.062,-1.763 6.534,-1.763 3.566,0 6.43,0.936 8.592,2.816 2.169,1.873 3.394,4.462 3.691,7.753l-7.058 0c-0.055,-1.791 -0.502,-3.078 -1.349,-3.863 -0.847,-0.778 -2.141,-1.17 -3.876,-1.17 -1.763,0 -3.05,0.661 -3.87,1.976 -0.819,1.322 -1.253,3.428 -1.294,6.327l0 2.079c0,3.133 0.392,5.377 1.184,6.727 0.785,1.342 2.141,2.017 4.062,2.017 1.625,0 2.871,-0.385 3.732,-1.15 0.861,-0.771 1.315,-1.989 1.37,-3.662l7.043 0z"/>
  <polygon id="3" class="fil0" points="157.029,29.878 154.13,33.066 154.13,40.812 147.045,40.812 147.045,11.44 154.13,11.44 154.13,24.391 156.588,20.659 162.922,11.44 171.673,11.44 161.752,24.432 171.673,40.812 163.287,40.812 "/>
  <polygon id="4" class="fil0" points="206.504,29.857 209.871,11.44 216.887,11.44 210.656,40.812 203.316,40.812 199.378,24.067 195.529,40.812 188.204,40.812 181.952,11.44 188.996,11.44 192.362,29.857 196.397,11.44 202.408,11.44 "/>
  <path id="5" class="fil0" d="M235.469 35.317l-9.701 0 -1.693 5.495 -7.567 0 10.775 -29.372 6.651 0 10.857 29.372 -7.607 0 -1.715 -5.495zm-8.007 -5.453l6.314 0 -3.168 -10.196 -3.146 10.196z"/>
  <polygon id="6" class="fil0" points="254.651,24.191 260.055,11.44 267.698,11.44 258.238,30.264 258.238,40.812 251.057,40.812 251.057,30.264 241.617,11.44 249.225,11.44 "/>
  <path class="fil1" d="M26.126 0c14.429,0 26.126,11.697 26.126,26.126 0,14.429 -11.697,26.126 -26.126,26.126 -14.429,0 -26.126,-11.697 -26.126,-26.126 0,-14.429 11.697,-26.126 26.126,-26.126zm-17.601 25.379l29.286 -16.909 0 35.312 -30.58 -17.656 1.294 -0.747z"/>
  <polygon class="fil2" points="36.946,9.967 8.958,26.126 36.946,42.285 "/>
 </g>
</svg>
